<?xml version="1.0" encoding="UTF-8"?>
<!--
  Africa political map - SVG with individual country paths
  Path data derived from simplemaps.com world map (public domain / free for commercial use)
  via world-map-country-shapes by sirLisko (MIT license)
  Original projection: Robinson
-->
<svg xmlns="http://www.w3.org/2000/svg" viewBox="830 320 480 480">

  <!-- North Africa -->
  <path id="morocco" d="M965.2 348.4l-2.3-.1-5.5-1.4-5 .4-3.1-2.7h-3.9l-1.8 3.9-3.7 6.7-4 2.6-5.4 2.9-3.5 4.3-.9 3.4-2.1 5.4 1.1 7.9-4.7 5.3-2.7 1.7-4.4 4.4-5.1.7-2.8 2.4-.1.1-3.6 6.5-3.7 2.3-2.1 4-.2 3.3-1.6 3.8-1.9 1-3.1 4-2 4.5.3 2.2-1.9 3.3-2.2 1.7-.3 3h.1l12.4-.5.7-2.3 2.3-2.9 2-8.8 7.8-6.8 2.8-8.1 1.7-.4 1.9-5 4.6-.7 1.9.9h2.5l1.8-1.5 3.4-.2-.1-3.4h.8l.1-7.5 8.9-4.7 5.4-1 4.4-1.7 2.1-3.2 6.3-2.5.3-4.7 3.1-.5 2.5-2.4 7-1 1-2.5-1.4-1.4-1.8-6.7-.3-3.9-2-4.1z"/>
  <path id="algeria" d="M1021 336.9l-3.6.4-2.2-1.5h-5.6l-4.9 2.6-2.7-1-8.7.5-8.9 1.2-5 2-3.4 2.6-5.7 1.2-5.1 3.5 2 4.1.3 3.9 1.8 6.7 1.4 1.4-1 2.5-7 1-2.5 2.4-3.1.5-.3 4.7-6.3 2.5-2.1 3.2-4.4 1.7-5.4 1-8.9 4.7-.1 7.5v.4l-.1 1.2 20.3 15.5 18.4 13.9 18.6 13.8 1.3 3 3.4 1.8 2.6 1.1.1 4 6.1-.6 7.8-2.8 15.8-12.5 18.6-12.2-2.5-4-4.3-2.9-2.6 1.2-2-3.6-.2-2.7-3.4-4.7 2.1-2.6-.5-4 .6-3.5-.5-2.9.9-5.2-.4-3-1.9-5.6-2.6-11.3-3.4-2.6v-1.5l-4.5-3.8-.6-4.8 3.2-3.6 1.1-5.3-1-6.2 1-3.3z"/>
  <path id="tunisia" d="M1038 361.4l-2-1-1.5-3-2.8-.1-1.1-3.5 3.4-3.2.5-5.6-1.9-1.6-.1-3 2.5-3.2-.4-1.3-4.4 2.4.1-3.3-3.7-.7-5.6 2.6-1 3.3 1 6.2-1.1 5.3-3.2 3.6.6 4.8 4.5 3.8v1.5l3.4 2.6 2.6 11.3 2.6-1.4.4-2.7-.7-2.6 3.7-2.5 1.5-2 2.6-1.8.1-4.9z"/>
  <path id="libya" d="M1111.8 371.4l-1.5-2.1-5.4-.8-1.8-1.1h-2l-2-2.8-7.3-1.3-3.6.8-3.7 3-1.5 3.1 1.5 4.8-2.4 3-2.5 1.6-5.9-3.1-7.7-2.7-4.9-1.2-2.8-5.7-7.2-2.8-4.5-1.1-2.2.6-6.4-2.2-.1 4.9-2.6 1.8-1.5 2-3.7 2.5.7 2.6-.4 2.7-2.6 1.4 1.9 5.6.4 3-.9 5.2.5 2.9-.6 3.5.5 4-2.1 2.6 3.4 4.7.2 2.7 2 3.6 2.6-1.2 4.3 2.9 2.5 4 8.8 2.8 3.1 3.5 3.9-2.4 5.4-3.5 22.3 12.2 22.4 12.2v-2.7h6.3l-.5-12.7-1-23.4-1.3-22.7-2-5.1 1.2-3.9-1.1-2.7 1.8-3z"/>
  <path id="egypt" d="M1129.7 374.8l-5.5-1.9-5.3-1.7-7.1.2-1.8 3 1.1 2.7-1.2 3.9 2 5.1 1.3 22.7 1 23.4h65.3l-1-1.3-6.8-5.7-.4-4.2 1-1.1-5.3-7-2-3.6-2.3-3.5-4.8-9.9-3.9-6.4-2.8-6.7.5-.6 4.6 9.1 2.7 2.9 2 2 1.2-1.1 1.2-3.3.7-4.8 1.3-2.5-.7-1.7-3.9-9.2-2.5 1.6-4.2-.4-4.4-1.5-1.1 2.1-1.7-3.2-3.9-.8-4.7.6-2.1 1.8-3.9 2-2.6-1z"/>
  <path id="western-sahara" d="M929.6 396.2h-.8l.1 3.4-3.4.2-1.8 1.5h-2.5l-1.9-.9-4.6.7-1.9 5-1.7.4-2.8 8.1-7.8 6.8-2 8.8-2.3 2.9-.7 2.3-12.4.5h-.1l-.3 2.7 1.2-2.2 21.6.1-.9-9.2 1.4-3.3 5.2-.5.2-16.3 17.9.3.2-9.7.1-1.2v-.4z"/>

  <!-- West Africa -->
  <path id="mauritania" d="M949.8 413.3l-20.3-15.5-.2 9.7-17.9-.3-.2 16.3-5.2.5-1.4 3.3.9 9.2-21.6-.1-1.2 2.2 2.8 2.7 1.4 3-.7 3.2.6 3.2.5 6.3-.8 5.9-1.7 3.2.4 3.4 2-2 2.7.5 2.8-1.4h3.1l2.6 1.8 3.7 1.7 3.2 4.7 3.6 4.4 1.9-1.2 1-3.7 1.8-.2 3.8 1.8 3.2-1.3 2.1.4.9-1.4 22.3-.1 1.3-4.4-1-.8-2.4-27.5-2.4-27.4 8.4-.1z"/>
  <path id="mali" d="M1000.3 450.3l-6.1.6-.1-4-2.6-1.1-3.4-1.8-1.3-3-18.6-13.8-18.4-13.9-8.4.1 2.4 27.4 2.4 27.5 1 .8-1.3 4.4-22.3.1-.9 1.4-2.1-.4-3.2 1.3-3.8-1.8-1.8.2-1 3.7-1.9 1.2.2 3.9 1.1 3.7 2.1 1.8.4 2.4-.3 2 .3 2.3h.9l1.5-.8.9.2 1.5 1.6 2.4.5 1.6-1.4 1.8-.8 1.3-.9 1.1.2 1.3 1.4.6 1.7 2.3 2.7-1.2 1.6-.2 2.1 1.2-.6.7.7-.3 1.9 1.7 1.8.7-.6 1.6 1 4.3.1 1-1.9 1 .1 1.6-.7.9 2.7 1.3-.8 2.3-.9-.4-3.7 1.6-2.7-.2-2.2 4.5-5.2.8-4.4 1.6-1.6 2.7.9 2.3-1.3.8-1.6 4.3-2.9 1.1-2 5.2-2.6 3-.9 1.4 1.2h3.6l3.6-.3 2-2.2 7.6-.6 4.9-1 .5-3.9 3-4.3-.1-14.6z"/>
  <path id="niger" d="M1051.3 425.6l-8.8-2.8-18.6 12.2-15.8 12.5-7.8 2.8.1 14.6-3 4.3-.5 3.9-4.9 1-7.6.6-2 2.2-3.6.3-.5 3.1.8 2.9 3.1 4.1.2 3.1 6.4 1.4-.1 4.4 1.9-1.9h2l4.3 3.7.3-5.7 1.6-2.6.8-3.6 1.4-1.4 6-.8 5.6 2.4 2.1 2.4 2.9.1 2.6-1.5 6.8 3.3 2.8-.2 3.3-2.7 3.3.2 1.6-.9 3 .4 4.3 1.8 4.3-3.5 1.3.2 3.9 7 1-.2.2-2 1.6-.4.5-2.9-3.6-.2v-4.1l-2.4-2.3 2.3-8.4 6.9-6 .2-8.3 1.8-12.9 1.1-2.7-2.3-2.2-.2-2.1-2-1.6-1.6-9.9-3.9 2.4-3.1-3.5z"/>
  <path id="senegal" d="M908.9 479.2l-3.6-4.4-3.2-4.7-3.7-1.7-2.6-1.8h-3.1l-2.8 1.4-2.7-.5-2 2-1.3 3.3-2.8 4.4-2.5 1.2 2.7 2.3 2.2 5 6.1-.2 1.3-1.5 1.8-.1 2.1 1.5 1.8.1 1.8-1.1 1.1 1.8-2.4 1.5-2.4-.1-2.4-1.4-2.1 1.5h-1l-1.4.9-5-.1.8 4.9 3-1.1 1.8.2 1.5-.7 10.3.3 2.7.1 4 1.5 1.3-.1.4-.7 3 .5.8-.4.3-2-.4-2.4-2.1-1.8-1.1-3.7-.2-3.9z"/>
  <path id="gambia" d="M882.8 488.5l5 .1 1.4-.9h1l2.1-1.5 2.4 1.4 2.4.1 2.4-1.5-1.1-1.8-1.8 1.1-1.8-.1-2.1-1.5-1.8.1-1.3 1.5-6.1.2-.7 2.8z"/>
  <path id="guinea-bissau" d="M900.2 492.1l-10.3-.3-1.5.7-1.8-.2-3 1.1.3 1.3 1.7 1.4v.9l1.2 1.8 2.4.5 2.9 2.6 2.6-3.1 1.7.1 1.4-1h1.3l.8-.9-.4-2.1.6-.7.1-2.1z"/>
  <path id="guinea" d="M912.4 493l-.8.4-3-.5-.4.7-1.3.1-4-1.5-2.7-.1-.1 2.1-.6.7.4 2.1-.8.9h-1.3l-1.4 1-1.7-.1-2.6 3.1 1.6 1.1.8 1.4.7 2.8 1.3 1.2 1.5.9 2.1 2.5 2.4 3.7 3-2.8.7-1.7 1-1.4 1.5-.2 1.3-1.2h4.5l1.5 2.3 1.2 2.7-.2 1.8.9 1.7v2.3l1.5-.3 1.2-.2 1.5-.7 2.3 3.9-.4 2.6 1.1 1.3 1.6.1 1.1-2.6 1.6.2h.9l.3-2.8-.4-1.2.6-.9 2-.8-1.3-5.1-1.3-2.6.5-2.2 1.1-.5-1.7-1.8.3-1.9-.7-.7-1.2.6.2-2.1 1.2-1.6-2.3-2.7-.6-1.7-1.3-1.4-1.1-.2-1.3.9-1.8.8-1.6 1.4-2.4-.5-1.5-1.6-.9-.2-1.5.8h-.9l-.3-2.3z"/>
  <path id="sierra-leone" d="M919.4 518.7l-1.5.3v-2.3l-.9-1.7.2-1.8-1.2-2.7-1.5-2.3H910l-1.3 1.2-1.5.2-1 1.4-.7 1.7-3 2.8.7 4.7.9 2.3 2.9 3.5 4.1 2.5 1.5.5 1.3-2 .3-1.9 2.6-3.4 2.6-3z"/>
  <path id="liberia" d="M929.4 523.3l-1.6-.2-1.1 2.6-1.6-.1-1.1-1.3.4-2.6-2.3-3.9-1.5.7-1.2.2-2.6 3-2.6 3.4-.3 1.9-1.3 2 3.7 4.1 4.8 3.5 5.1 4.8 5.7 3.1 1.5-.1.5-5.2.5-.8-.2-2.5-2.3-2.7-1.8-.4-1.6-1.8 1.2-2.8-.6-3.1.3-1.8z"/>
  <path id="ivory-coast" d="M946.5 506.2l-2.3.9-1.3.8-.9-2.7-1.6.7-1-.1-1 1.9-4.3-.1-1.6-1-.7.6-1.1.5-.5 2.2 1.3 2.6 1.3 5.1-2 .8-.6.9.4 1.2-.3 2.8h-.9l-.3 1.8.6 3.1-1.2 2.8 1.6 1.8 1.8.4 2.3 2.7.2 2.5-.5.8-.5 5.2 1.1.2 5.6-2.4 3.9-1.8 6.6-1.1 3.6-.1 3.9 1.3 2.6-.1.2-2.5-2.4-5.5 1.5-7.2 2.3-5.3-1.4-9.1-3.8-1.6-2.7.2-1.9 1.6-2.5-1.3-1-2.1-2.5-1.4z"/>
  <path id="burkina-faso" d="M978.8 477.2h-3.6l-1.4-1.2-3 .9-5.2 2.6-1.1 2-4.3 2.9-.8 1.6-2.3 1.3-2.7-.9-1.6 1.6-.8 4.4-4.5 5.2.2 2.2-1.6 2.7.4 3.7 2.5 1.4 1 2.1 2.5 1.3 1.9-1.6 2.7-.2 3.8 1.6-.8-4.8.2-3.6 9.7-.3 2.4.5 1.8-1 2.6.5 4.9.1 1.9-.7 1.2-2.8 2.7-.6 1.2-1.9.1-4.4-6.4-1.4-.2-3.1-3.1-4.1-.8-2.9.5-3.1z"/>
  <path id="ghana" d="M976.8 502.1l-2.6-.5-1.8 1-2.4-.5-9.7.3-.2 3.6.8 4.8 1.4 9.1-2.3 5.3-1.5 7.2 2.4 5.5-.2 2.5 5 1.8 5-1.9 3.2-2.1 8.7-3.8-1.2-2.2-1.5-4-.4-3.2 1.2-5.7-1.4-2.3-.6-5.1.1-4.6-2.4-3.3.4-1.9z"/>
  <path id="togo" d="M981.7 502.2l-4.9-.1-.4 1.9 2.4 3.3-.1 4.6.6 5.1 1.4 2.3-1.2 5.7.4 3.2 1.5 4 1.2 2.2 4.6-1.3-1.4-4.4.2-14.6-1.1-1.3-.2-3.1-2-2.3-1.7-1.9.7-3.3z"/>
  <path id="benin" d="M996.9 498l-4.3-3.7h-2l-1.9 1.9-1.2 1.9-2.7.6-1.2 2.8-1.9.7-.7 3.3 1.7 1.9 2 2.3.2 3.1 1.1 1.3-.2 14.6 1.4 4.4 4.6-.8.3-10.2-.1-4.1 1-4 1.7-1.9 2.7-4-.6-1.7 1.1-2.5-1.2-3.8.2-2.1z"/>
  <path id="nigeria" d="M1055.8 492.7l-1 .2-3.9-7-1.3-.2-4.3 3.5-4.3-1.8-3-.4-1.6.9-3.3-.2-3.3 2.7-2.8.2-6.8-3.3-2.6 1.5-2.9-.1-2.1-2.4-5.6-2.4-6 .8-1.4 1.4-.8 3.6-1.6 2.6-.3 5.7-.2 2.1 1.2 3.8-1.1 2.5.6 1.7-2.7 4-1.7 1.9-1 4 .1 4.1-.3 10.2h9.2l3.9 4.2 1.9 4.6 3 3.9 4.5.2 2.2-1.4 2.1.3 5.8-2.3 1.4-4.5 2.7-6.1 1.6-.1 3.3-3.7 2.1-.1 3.2 2.6 3.9-2.2.5-2.6 1.2-2.6.8-3.2 3-2.6 1.1-4.5 1.2-1.4.7-3.3 1.5-4 4.6-5 .3-2.1.6-1.1-2.3-2.6z"/>
  <path id="cabo-verde" d="M841.4 477.6l.1-.4-.2-.6-.3-.1-.6.4-.1.3.1.3.3.3.3.1.4-.3zm6.3-1.7l.4-.2v-.7l-.1-.3h-.4l-.2.4v.5l.2.3h.1zm-1.4.8l-.5-.9-.3-.1-.6-.7v-.3l-.3-.1V475.2l-.2.5v.5l.4.8.4.2.7.1.4-.6zm3.1-7.8v.5l-.3.7.5.3.3.1.6-.4.2-.5-.1-.3-.3-.3-.3-.1-.1.1-.5-.1zm-6.4-2.5l-1-.1-.6-.2h-.1v.3l.4.8.2-.5.2-.1.8.2.4-.1-.1-.1-.2-.2zm6.7-.2l-.1-.5v-.7h-.2l-.3.2.1.7.1.1.2.5.2-.3zm-11.1-1v-.2l-.3-.5-.3.1-.4.2-.1.3.4.2h.2l.5-.1zm-1.5-.9l.8-.6.2-.3-.2-.5-.5-.1-1.2.6-.1.2.1.3.1.5.2.1.6-.2z"/>

  <!-- Central Africa -->
  <path id="chad" d="M1108.4 447.6l-22.4-12.2-22.3-12.2-5.4 3.5 1.6 9.9 2 1.6.2 2.1 2.3 2.2-1.1 2.7-1.8 12.9-.2 8.3-6.9 6-2.3 8.4 2.4 2.3v4.1l3.6.2-.5 2.9 2.2 4.1.5 4.2-.2 4.3 3.1 5.8-3.1-.1-1.6.4-2.5-.6-1.2 3 3.3 3.7 2.5 1.1.8 2.6 1.8 4.4-.9 1.7 4.7-.4 1-1.7.9.2 1.4 1.4 7.1-2.4 2.3-2.5 2.9-2.2-.6-2.3 1.6-.6 5.4.4 5.2-2.9 4-7 2.8-2.5 3.5-1.1v-1.6l-2.1-1.8-.1-3.7-1.2-2.5-2 .4.5-2.4 1.4-2.6-.7-2.7 1.8-1.9-1.2-1.5 1.4-3.9 2.4-4.7 4.8.4-1.1-25.2z"/>
  <path id="cameroon" d="M1060.1 502.9l.2-4.3-.5-4.2-2.2-4.1-1.6.4-.2 2 2.3 2.6-.6 1.1-.3 2.1-4.6 5-1.5 4-.7 3.3-1.2 1.4-1.1 4.5-3 2.6-.8 3.2-1.2 2.6-.5 2.6-3.9 2.2-3.2-2.6-2.1.1-3.3 3.7-1.6.1-2.7 6.1-1.4 4.5v1.8l1.4.9 1.1 2.8 2.6 1.1 2.2 4.2-.8 5 9.2.2 2.6-.4 3.4.8 3.4-.8.7.3 7.1.3 4.5 1.7 4.5 1.5.4-3.5-.6-1.8-.3-2.9-2.6-2.1-2.1-3.2-.5-2.3-2.6-3.3.4-1.9-.6-2.7.4-5 1.4-1.1 2.7-6.5.9-1.7-1.8-4.4-.8-2.6-2.5-1.1-3.3-3.7 1.2-3 2.5.6 1.6-.4 3.1.1-3.1-5.8z"/>
  <path id="central-african-republic" d="M1110.5 517.3l-.5-.3-2-1.8-.3-2 .8-2.6V508l-3.3-4-.7-2.7-3.5 1.1-2.8 2.5-4 7-5.2 2.9-5.4-.4-1.6.6.6 2.3-2.9 2.2-2.3 2.5-7.1 2.4-1.4-1.4-.9-.2-1 1.7-4.7.4-2.7 6.5-1.4 1.1-.4 5 .6 2.7-.4 1.9 2.6 3.3.5 2.3 2.1 3.2 2.6 2.1.3 2.9.6 1.8 2.9-5.9 3.3-3.4 3.8 1.1 3.6.4.5-4.5 2.2-3.2 3-2 4.6 2.1 3.6 2.4 4.1.6 4.2 1.2 1.6-3.8.8-.5 2.6.6 6.2-3.1 2.2 1.3 1.8-.2.9-1.5 2-.6 4.3.7 3.6.1 1.8-.6-.9-2.1-4.2-2.5-1.5-3.8-2.4-2.7-3.8-3.4-.1-2-3.1-2.6-3.8-2.5z"/>
  <path id="equatorial-guinea" d="M1040.1 557.8l-9.2-.2-1.9 7.2 1 .9 1.9-.3h8.2v-7.6z"/>
  <path id="sao-tome-and-principe" d="M1014.1 571.4l.5-.8v-.5l-.3-.5h-.4l-.5.4-.3.4v.3l.1.7.1.3.3.2.5-.5zm4.3-9.2l.2-.4v-.2l-.1-.1-.1-.1-.2.1-.3.5.1.2.2.2.2-.2z"/>
  <path id="gabon" d="M1050.2 557.7l-.7-.3-3.4.8-3.4-.8-2.6.4v7.6h-8.2l-1.9.3-1.1 4.8-1.3 4.6-1.3 2-.2 2.1 3.4 6.6 3.7 5.3 5.8 6.4 4.3-3.5-2.1-4.2 1.9-1.6 3.8-.8.5-2.8 3 3 4.9.3 1.7-3 .8-4.3-.6-4.9-2.7-3.8 2.4-7.4-1.4-1.2-4.2.5-1.5-3.3.4-2.8z"/>
  <path id="congo" d="M1080.3 549.9l-3.6-.4-3.8-1.1-3.3 3.4-2.9 5.9-.4 3.5-4.5-1.5-4.5-1.7-7.1-.3-.4 2.8 1.5 3.3 4.2-.5 1.4 1.2-2.4 7.4 2.7 3.8.6 4.9-.8 4.3-1.7 3-4.9-.3-3-3-.5 2.8-3.8.8-1.9 1.6 2.1 4.2-4.3 3.5 4.6 6.7 2.2-2.7 1.8-1.1 2 2.2 1.5.6 1.9-2.4 3.1.1.4 1.8 2 1.1 3.4-4 3.3-3.1 1.4-2-.2-5.3 2.5-6.2 2.6-3.2 3.7-3.1.6-2 .2-2.4.9-2.2-.3-3.6.7-5.6 1.1-4 1.6-3.4.3-3.8z"/>
  <path id="dr-congo" d="M1124.9 539.4l-4.3-.7-2 .6-.9 1.5-1.8.2-2.2-1.3-6.2 3.1-2.6-.6-.8.5-1.6 3.8-4.2-1.2-4.1-.6-3.6-2.4-4.6-2.1-3 2-2.2 3.2-.5 4.5-.3 3.8-1.6 3.4-1.1 4-.7 5.6.3 3.6-.9 2.2-.2 2.4-.6 2-3.7 3.1-2.6 3.2-2.5 6.2.2 5.3-1.4 2-3.3 3.1-3.4 4-2-1.1-.4-1.8-3.1-.1-1.9 2.4-1.5-.6-2 1.3-.9 1.7-.2 2.7-1.5.7.8 2 2.3-.9 1.7.1 1.9-.7 16.6.1 1.3 4.7 1.6 3.8 1.3 2.1 2.1 3.3 3.7-.5 1.9-.9 3 .9.9-1.6 1.5-3.7 3.4-.3.3-1.1h2.9l-.5 2.3h6.8v4l1.2 2.4-.9 3.8.3 4 1.9 2.3-.5 7.6 1.4-.6 2.4.2 3.5-1 2.6.4 1.9.1.3 2 2.6-.1 3.5.6 1.8 2.8 4.5.9 3.4-2 1.2 3.4 4.3.8 2 2.8 2.1 3.5h4.3l-.3-6.9-1.5 1.2-3.9-2.5-1.4-1.1.8-6.4 1.2-7.5-1.2-2.8 1.6-4.1 1.6-.7 7.5-1.1 1 .3.2-1.1-1.5-1.7-.7-3.5-3.4-3.5-1.8-4.5 1-2.7-1.5-3.6 1.1-10.2.1.1-.1-1.1-1.4-2.9.6-3.5.8-.4.2-3.8 1.6-1.8.1-4.8 1.3-2.4.3-5.1 1.2-3 2.1-3.3 2.2-1.7 1.8-2.3-2.3-.8.3-7.5-5-4.2-1.4-2.7-3.1 1.3-2.6-.4-1.5 1.1-2.5-.8-3.5-5.2-1.8.6-3.6-.1z"/>

  <!-- East Africa -->
  <path id="sudan" d="M1180.8 468.5l.4-4.2 1.6-2 4-1 2.6-3.6-3.1-2.4-2.2-1.6-2.5-7.6-1.1-6.5 1.1-1.2-2.1-6.2H1114.2l.5 12.7h-6.3v2.7l1.1 25.2-4.8-.4-2.4 4.7-1.4 3.9 1.2 1.5-1.8 1.9.7 2.7-1.4 2.6-.5 2.4 2-.4 1.2 2.5.1 3.7 2.1 1.8v1.6l.7 2.7 3.3 4v2.6l-.8 2.6.3 2 2 1.8.5.3 1.7-.7 1.9-1.2 1.3-5.7 1.5-2.9 4-.9 1 1.8 3 3.7 1.5.5 2-1.1 4.1.3.8 1.3h5.5l.2-1.3 2.9-1.2.5-1.9 2.1-1.3 4.8 3.7 2.8-.7 2.7-4.5 3-3.5-.6-3.9-1.4-1.8 3.4-.3.3-1.5 2.6.5-.5 4.7.8 4.6 2.9 2.5.7 2.2v3.1l.8.1v-.7l1.4-6.7 2.6-1.8.5-2.6 2.3-4.8 3.2-3.2 2.1-6.2.7-5.5-.7-2.5 1.9-9.4z"/>
  <path id="south-sudan" d="M1166 508.7l-.7-2.2-2.9-2.5-.8-4.6.5-4.7-2.6-.5-.3 1.5-3.4.3 1.4 1.8.6 3.9-3 3.5-2.7 4.5-2.8.7-4.8-3.7-2.1 1.3-.5 1.9-2.9 1.2-.2 1.3h-5.5l-.8-1.3-4.1-.3-2 1.1-1.5-.5-3-3.7-1-1.8-4 .9-1.5 2.9-1.3 5.7-1.9 1.2-1.7.7 3.8 2.5 3.1 2.6.1 2 3.8 3.4 2.4 2.7 1.5 3.8 4.2 2.5.9 2.1 3.5 5.2 2.5.8 1.5-1.1 2.6.4 3.1-1.3 1.4 2.7 5 4.2 2.3-1.7 3.5 1.4 4.5-1.5 4 .1 3.4-3 3.4-3.8 3.8-4.2-3.5-6.9-2.6-1.5-1-2.5-2.9-3.1-3.4-.5 1.8-3.6 3-.1.8-2-.2-5-.8-.1v-3.1z"/>
  <path id="eritrea" d="M1198.1 474l-3.2-3.1-1.8-5.9-3.7-7.3-2.6 3.6-4 1-1.6 2-.4 4.2-1.9 9.4.7 2.5 6.5 1.3 1.5-4.7 3.5 2.9 3.2-1.5 1.4 1.3 3.9.1 4.9 2.5 1.6 2.2 2.5 2.1 2.5 3.7 2 2.1 2.4.5 1.6-1.5-2.8-1.9-1.9-2.2-3.2-3.7-3.2-3.6-7.9-6z"/>
  <path id="djibouti" d="M1217.8 499.2l-2.5-1.7 3.1-1.5.1-2.7-1.4-1.9-1.6 1.5-2.4-.5-1.9 2.8-1.8 3 .5 1.7.2 2 3.1.1 1.3-.5 1.3 1.1 2-3.4z"/>
  <path id="ethiopia" d="M1187.6 477l-1.5 4.7-6.5-1.3-.7 5.5-2.1 6.2-3.2 3.2-2.3 4.8-.5 2.6-2.6 1.8-1.4 6.7v.7l.2 5-.8 2-3 .1-1.8 3.6 3.4.5 2.9 3.1 1 2.5 2.6 1.5 3.5 6.9 2.9 1.1v3.6l2 2.1h3.9l7.2 5.4h1.8l1.3-.1 1.2.7 3.8.5 1.6-2.7 5.1-2.6 2.3 2.1h3.8l1.5-2 3.6-.1 4.9-4.5 7.4-.3 15.4-19.1-4.8.1-18.5-7.6-2.2-2.2-2.1-3.1-2.2-3.5 1.1-2.3-1.3-1.1-1.3.5-3.1-.1-.2-2-.5-1.7 1.8-3 1.9-2.8-2-2.1-2.5-3.7-2.5-2.1-1.6-2.2-4.9-2.5-3.9-.1-1.4-1.3-3.2 1.5-3.5-2.9z"/>
  <path id="somalia" d="M1223.4 505.7l-2.6-2.7-1.2-2.6-1.8-1.2-2 3.4-1.1 2.3 2.2 3.5 2.1 3.1 2.2 2.2 18.5 7.6 4.8-.1-15.4 19.1-7.4.3-4.9 4.5-3.6.1-1.5 2-4.8 7.2.2 23.2 3.3 5.3 1.3-1.5 1.3-3.4 6.1-7.7 5.3-4.8 8.3-6.4 5.6-5.1 6.4-8.7 4.7-7.1 4.6-9.3 3.2-8.2 2.5-7.1 1.3-6.8 1.1-2.3-.2-3.4.4-3.7-.2-1.7h-2.1l-2.6 2.2-2.9.6-2.5.9-1.8.2-3.2.2-1.9 1.1-2.8.5-4.8 1.9-6.1.8-5.2 1.6h-2.8z"/>
  <path id="kenya" d="M1211.7 547.2h-3.8l-2.3-2.1-5.1 2.6-1.6 2.7-3.8-.5-1.2-.7-1.3.1h-1.8l-7.2-5.4h-3.9l-2-2.1v-3.6l-2.9-1.1-3.8 4.2-3.4 3.8 2.7 4.4.7 3.2 2.6 7.3-2.1 4.7-2.7 4.2-1.6 2.6v.3l1.4 2.4-.4 4.7 20.2 13 .4 3.7 8 6.3 2.2-2.1 1.2-4.2 1.8-2.6.9-4.5 2.1-.4 1.4-2.7 4-2.5-3.3-5.3-.2-23.2 4.8-7.2z"/>
  <path id="uganda" d="M1167.6 545.1l-3.4 3-4-.1-4.5 1.5-3.5-1.4-2.3 1.7-.3 7.5 2.3.8-1.8 2.3-2.2 1.7-2.1 3.3-1.2 3-.3 5.1-1.3 2.4-.1 4.8 1.4.6 3.3-1.9 2-.8 6.2.1-.3-2.5 2.6-3.7 3.5-.9 2.4-1.5 2.9 1.2.3.5v-.3l1.6-2.6 2.7-4.2 2.1-4.7-2.6-7.3-.7-3.2-2.7-4.4z"/>
  <path id="rwanda" d="M1147.6 579.4l-3.3 1.9-1.4-.6-1.6 1.8-.2 3.8-.8.4-.6 3.5 3.5.5 1.7-3.6 3 .4 1.6-.8.4-3.7-2.3-3.6z"/>
  <path id="burundi" d="M1148.2 590l-.3-2.5-3-.4-1.7 3.6-3.5-.5 1.4 2.9.1 1.1 2 6.1-.1.3.6-.1 2.1-2.3 2.2-3.3 1.4-1.4v-2l-1.2-1.5z"/>
  <path id="tanzania" d="M1149.6 578.6l-2 .8 2.3 3.6-.4 3.7-1.6.8.3 2.5 1.2 1.5v2l-1.4 1.4-2.2 3.3-2.1 2.3-.6.1-.3 2.7 1.1.9-.2 2.7 1 2.6-1.3 2.4 4.5 4.3.3 3.9 2.7 6.5.3.2 2.2 1.1 3.5 1.1 3.2 1.9 5.4 1.2 1.1 1.7.4-1.2 2.8 3.4.3 6.7 1.8 2.4v.1l2.1-.3 6.7 1.8 1.4-.8 3.9-.1 2.1-1.9 3.3.1 6.2-2.5 4.6-3.7-2-1.4-2.2-6.3-1.8-3.9.4-3.1-.3-1.9 1.7-3.9-.2-1.6-3.5-2.3-.3-3.6 2.8-7.9-8-6.3-.4-3.7-20.2-13-2.8 2.8-1.9 2.9 2.2 2.2-3.2 1.6-.7-.8-3.2.4-2.5 1.4-1.6-2.4 1.1-4.5.2-3.8-6.2-.1z"/>

  <!-- Southern Africa -->
  <path id="angola" d="M1068.3 609.6l-16.6-.1-1.9.7-1.7-.1-2.3.9-.5 1.2 2.8 4 1.1 4.3 1.6 6.1-1.7 2.6-.3 1.3 1.3 3.8 1.5 3.9 1.6 2.2.3 3.6-.7 4.8-1.8 2.8-3.3 4.2-1.3 2.6-1.9 5.7-.3 2.7-2 5.9-.9 5.5.5 4 2.7-1.2 3.3-1 3.6.1 3.2 2.9.9-.4 22.5-.3 3.7 3 13.4.9 10.3-2.5-3.5-4-3.6-5.2.8-20.3 11.6.1-.5-2.2.9-2.4-.9-3 .7-3-.5-2-2.6-.4-3.5 1-2.4-.2-1.4.6.5-7.6-1.9-2.3-.3-4 .9-3.8-1.2-2.4v-4h-6.8l.5-2.3h-2.9l-.3 1.1-3.4.3-1.5 3.7-.9 1.6-3-.9-1.9.9-3.7.5-2.1-3.3-1.3-2.1-1.6-3.8-1.3-4.7zm-21.8-1.3l.2-2.7.9-1.7 2-1.3-2-2.2-1.8 1.1-2.2 2.7 1.4 4.8 1.5-.7z"/>
  <path id="zambia" d="M1149.2 626.7l-1.9-.5.4-1.3-1-.3-7.5 1.1-1.6.7-1.6 4.1 1.2 2.8-1.2 7.5-.8 6.4 1.4 1.1 3.9 2.5 1.5-1.2.3 6.9h-4.3l-2.1-3.5-2-2.8-4.3-.8-1.2-3.4-3.4 2-4.5-.9-1.8-2.8-3.5-.6-2.6.1-.3-2-1.9-.1.5 2-.7 3 .9 3-.9 2.4.5 2.2-11.6-.1-.8 20.3 3.6 5.2 3.5 4 4.6-1.5 3.6.4 2.1 1.4v.5l1 .5 6.2.7 1.7.7 1.9-.1 3.2-4.1 5.1-5.3 2-.5.7-2.2 3.3-2.5 4.2-.9-.3-4.5 17.1-5.2-2.9-1.7 1.9-5.9 1.8-2.2-.9-5.3 1.2-5.1 1-1.8-1.2-5.4-2.6-2.8-3.2-1.9-3.5-1.1-2.2-1.1-.3-.2.5 1.1-1 .4-1.2-1.4z"/>
  <path id="malawi" d="M1169.2 661.5l.1-2.3-1.2-1.9.1-2.8-1.5-4.7 1.7-3.5-.1-7.7-1.9-4.1.2-.7-1.1-1.7-5.4-1.2 2.6 2.8 1.2 5.4-1 1.8-1.2 5.1.9 5.3-1.8 2.2-1.9 5.9 2.9 1.7 3 3 1.6-.6 2.1 1.6.3 2.6-1.3 2.9.2 4.5 3.4 4 1.9-4.5 2.5-1.3-.1-8.2-2.2-4.6-1.9-2h-.3v.8l1.1.3 1 3.4-.2.8-1.9-2.5-1 1.6-.8-1.4z"/>
  <path id="mozambique" d="M1203 640.7l-.8-2.9-4.6 3.7-6.2 2.5-3.3-.1-2.1 1.9-3.9.1-1.4.8-6.7-1.8-2.1.3-1.6 6 .7 7.3h.3l1.9 2 2.2 4.6.1 8.2-2.5 1.3-1.9 4.5-3.4-4-.2-4.5 1.3-2.9-.3-2.6-2.1-1.6-1.6.6-3-3-17.1 5.2.3 4.5.3 2.4 4.6-.1 2.6 1.3 1.1 1.6 2.6.5 2.8 2-.3 8.1-1.3 4.4-.5 4.7.8 1.9-.8 3.7-.9.6-1.6 4.6-6.2 7.2 2.2 9 1.1 4.5-1.4 7.1.4 2.3.6 2.9.3 2.8h4.1l.7-3.3-1.4-.5-.3-2.6 2.6-2.4 6.8-3.4 4.6-2.2 2.5-2.3.9-2.6-1.2-1.1 1.1-3 .5-6.2-1 .3v-1.9l-.8-3.7-2.4-4.8.7-4.6 2.3-1.4 4.1-4.6 2.2-1.1 6.7-6.8 6.4-3.1 5.2-2.5 3.7-3.9 2.4-4.4 1.9-4.6-.9-3.1.2-9.9-.4-5.6.4-6.3z"/>
  <path id="zimbabwe" d="M1148.2 713.7l6.2-7.2 1.6-4.6.9-.6.8-3.7-.8-1.9.5-4.7 1.3-4.4.3-8.1-2.8-2-2.6-.5-1.1-1.6-2.6-1.3-4.6.1-.3-2.4-4.2.9-3.3 2.5-.7 2.2-2 .5-5.1 5.3-3.2 4.1-1.9.1-1.7-.7-6.2-.7 1.9 5.1 1.1 1.1 1.6 3.7 6 7 2.3.7-.1 2.2 1.5 4.1 4.2.9 3.4 2.9 2.2.1 2.6 1.1 1.9-.8 2.9.6z"/>
  <path id="botswana" d="M1116.7 685l-1-.5-3.2 1.5h-1.6l-3.7 2.5-2-2.6-8.6 2.2-4.1.2-.9 22.7-5.4.2-.6 18.5 1.4 1 3 6.1-.7 3.8 1.1 2.3 4-.7 2.8-2.8 2.7-1.9 1.5-3.1 2.7-1.5 2.3.8 2.5 1.8 4.4.3 3.6-1.5.6-2 1.2-3 3-.5 1.7-2.4 2-4.3 5.2-4.7 8-4.7-3.4-2.9-4.2-.9-1.5-4.1.1-2.2-2.3-.7-6-7-1.6-3.7-1.1-1.1-1.9-5.1z"/>
  <path id="namibia" d="M1105.4 683.7l-10.3 2.5-13.4-.9-3.7-3-22.5.3-.9.4-3.2-2.9-3.6-.1-3.3 1-2.7 1.2.2 4.9 4.4 6.2 1.1 4 2.8 7.7 2.7 5.2 2.1 2.6.6 3.5v7.6l1.6 9.8 1.2 4.6 1 6.2 1.9 4.7 3.9 4.8 2.7-3.2 2.1 1.8.8 2.7 2.4.5 3.3 1.2 2.9-.5 5-3.2 1.1-23.6.6-18.5 5.4-.2.9-22.7 4.1-.2 8.6-2.2 2 2.6 3.7-2.5h1.6l3.2-1.5v-.5l-2.1-1.4-3.6-.4-4.6 1.5z"/>
  <path id="south-africa" d="M1148.2 713.7l-2.9-.6-1.9.8-2.6-1.1-2.2-.1-8 4.7-5.2 4.7-2 4.3-1.7 2.4-3 .5-1.2 3-.6 2-3.6 1.5-4.4-.3-2.5-1.8-2.3-.8-2.7 1.5-1.5 3.1-2.7 1.9-2.8 2.8-4 .7-1.1-2.3.7-3.8-3-6.1-1.4-1-1.1 23.6-5 3.2-2.9.5-3.3-1.2-2.4-.5-.8-2.7-2.1-1.8-2.7 3.2 3.5 8.2v.1l2.5 5.3 3.2 6-.2 4.8-1.7 1.2 1.4 4.2-.2 3.8.6 1.7.3-.9 2.1 2.9 1.8.1 2.1 2.3 2.4-.2 3.5-2.4 4.6-1 5.6-2.5 2.2.3 3.3-.8 5.7 1.2 2.7-1.2 3.2 1 .8-1.8 2.7-.3 5.8-2.5 4.3-2.9 4.1-3.8 6.7-6.5 3.4-4.6 1.8-3.2 2.5-3.3 1.2-.9 3.9-3.2 1.6-2.9 1.1-5.2 1.7-4.7h-4.1l-1.3 2.8-3.3.7-3-3.5.1-2.2 1.6-2.4.7-1.8 1.6-.5 2.7 1.2-.4-2.3 1.4-7.1-1.1-4.5-2.2-9zm-20.1 52.8l-2 .6-3.7-4.9 3.2-4 3.1-2.5 2.6-1.3 2.3 2 1.7 1.9-1.9 3.1-1.1 2.1-3.1 1-1.1 2z"/>
  <path id="eswatini" d="M1150.5 736.6l-2.7-1.2-1.6.5-.7 1.8-1.6 2.4-.1 2.2 3 3.5 3.3-.7 1.3-2.8-.3-2.8-.6-2.9z"/>
  <path id="lesotho" d="M1128.1 766.5l1.1-2 3.1-1 1.1-2.1 1.9-3.1-1.7-1.9-2.3-2-2.6 1.3-3.1 2.5-3.2 4 3.7 4.9 2-.6z"/>
  <path id="madagascar" d="M1255.7 658.4l-1.1-4.2-1.4-2.7-1.8-2.7-2 2.8-.3 3.8-3.3 4.5-2.3-.8.6 2.7-1.8 3.2-4.8 3.9-3.4 3.7h-2.4l-2.2 1.2-3.1 1.3-2.8.2-1 4.1-2.2 3.5.1 5.9.8 4 1.1 3-.8 4.1-2.9 4.8-.2 2.1-2.6 1.1-1.3 4.6.2 4.6 1.6 5-.1 5.7 1.2 3.3 4.2 2.3 3 1.7 5-2.7 4.6-1.5 3.1-7.4 2.8-8.9 4.3-12 3.3-8.8 2.7-7.4.8-5.4 1.6-1.5.7-2.7-.8-4.7 1.2-1.9 1.6 3.8 1.1-1.9.8-3.1-1.3-2.9-.5-7.7z"/>

  <!-- Island nations -->
  <path id="comoros" d="M1221.1 650.5l-.4-.4h-.4v.2l.1.4 1.1.2-.4-.4zm3.9-1.5h-.1l-.2.1-.1.2-.1.3h-.9l.8.5.5.5.2.2.1-.2.1-.7-.3-.9zm-5.6-1.1l.2-.3-.2-.7-.4-.8.1-1.4-.2-.2h-.3l-.1.1-.1.3-.3 2 .4.6.3.1.5.4.1-.1z"/>
  <path id="mauritius" d="M1294.7 702.5l.3-.3.2-.4.3-.3.1-.7-.2-.8-.4-.7-.5.1-.3.4-.2.5-.5.3-.1.3-.2.7-.1.4-.2.1v.2l.3.3.8.1.7-.2z"/>
  <path id="seychelles" d="M1288.5 602l-.5-.8-.4.3.2.3.3.2.1.4.3.2v-.6z"/>
  <path id="reunion" d="M1284 707.9l.2-.4.1-.8-.4-.8-.4-.7-.4-.2-.8-.1-.7.3-.4.6-.2.3.4 1.1.2.3 1.1.6h.5l.8-.2z"/>
  <path id="mayotte" d="M1228.7 654.7v-.3l.2-.5v-.1l.1-.5-.3-.3h-.2l-.2-.3-.3.3.3.5-.1.3-.1.4.1.4.2.2.3-.1z"/>

</svg>
